<svg width="198" height="40" fill="none" xmlns="http://www.w3.org/2000/svg"><g clip-path="url(#a)"><path d="M14.598 24.974c-1.278 0-2.483.32-3.536.884a7.516 7.516 0 1 0 .019 13.246 7.5 7.5 0 0 0 3.515.872 7.5 7.5 0 0 0 7.506-7.5 7.5 7.5 0 0 0-7.506-7.503l.002.002ZM2.295 27.727c.29.242.595.46.914.653H1.797c.16-.222.313-.45.497-.653h.001Zm-.5.656v3.976H.453c.027-1.487.533-2.849 1.34-3.976h.002Zm-1.34 4.221h1.339v3.898h1.552a8.778 8.778 0 0 0-1.055.739 7.045 7.045 0 0 1-1.84-4.637h.003Zm2.01 4.818a8.08 8.08 0 0 1 1.357-.92h.796v-.341a7.6 7.6 0 0 1 .262-.1 10.468 10.468 0 0 0 2.475 3.488 7.04 7.04 0 0 1-4.89-2.126v-.001Zm2.153-1.529v-.522c.05.154.108.31.17.461l-.17.061Zm2.787 3.318a9.567 9.567 0 0 1-2.29-3.23 7.962 7.962 0 0 1 2.29-.369v3.599Zm0-3.844a8.102 8.102 0 0 0-2.382.387 8.944 8.944 0 0 1-.404-1.27v-.831h2.228v-1.049h.56v2.763h-.002Zm0-3.006h-.56v-.752H4.618v-1.053h2.5v-.964c.095.003.193.008.286.008v2.76h.001Zm0-3.006c-.093 0-.19-.003-.284-.008v-.967H5.404a9.55 9.55 0 0 1 2.001-2.623v3.598Zm-2.28-.975h-1.42a7.787 7.787 0 0 1-1.237-.83 7.038 7.038 0 0 1 4.939-2.128 9.814 9.814 0 0 0-2.28 2.958h-.002Zm7.443-.83a7.99 7.99 0 0 1-1.632 1.034 1.403 1.403 0 0 0-1.023-.44l-.104.003a9.789 9.789 0 0 0-2.156-2.724 7.039 7.039 0 0 1 4.915 2.127Zm.763 8.952a8.039 8.039 0 0 1-.59.739 8.327 8.327 0 0 0-1.561-1.016v-3.62h1.882l-1.217 3.897h1.487-.001Zm.56 0h.844l.243-.986h1.863l.23.986h.75c-.866.666-1.98 1.099-3.154 1.099-.498 0-.984-.07-1.456-.21a8.44 8.44 0 0 0 .68-.89Zm1.534-2.775.514-2.105.492 2.105h-1.006Zm2.273-5.273h-3.353l-.167.542a7.484 7.484 0 0 0-.965-1.416c.47-.139.96-.208 1.456-.208 1.369 0 2.65.532 3.617 1.495a5.092 5.092 0 0 1 1.5 3.616c0 .702-.14 1.373-.398 1.98l-1.688-6.01h-.002Zm-3.715 1.176-.846 2.73H11.18v-1.098h-.338a7.418 7.418 0 0 0-.102-.574c.352-.255.581-.67.581-1.14 0-.283-.083-.547-.226-.767a8.305 8.305 0 0 0 1.645-1.054c.509.558.929 1.2 1.242 1.901l.001.002Zm-6.328-3.873a9.605 9.605 0 0 1 1.898 2.434c-.52.139-.92.566-1.02 1.1-.29.04-.584.06-.878.065V25.757Zm0 3.843c.286-.005.57-.024.854-.049a1.408 1.408 0 0 0 2.008 1.274c.028.146.053.29.077.44H8.616v1.097h-.96V29.6Zm0 3.004h.96v2.835a7.83 7.83 0 0 0-.96-.072v-2.763Zm0 3.011c.322.002.643.032.96.074v.813h1.089a9.751 9.751 0 0 1-2.049 2.709v-3.596Zm0 3.93a10.037 10.037 0 0 0 2.324-3.043h1.203c.492.255.96.564 1.393.92a7.026 7.026 0 0 1-4.92 2.122ZM20.476 28.59l-.448.328.428.732.497-.226c.124.26.236.531.328.81l-.517.2.225.82.533-.09c.055.282.091.57.108.863l-.545.062.006.849.538.053a6.21 6.21 0 0 1-.109.82l-.547-.08-.204.826.51.182a7.32 7.32 0 0 1-.33.809l-.51-.217-.41.742.449.31a7.544 7.544 0 0 1-.528.699l-.439-.346-.588.61.355.42a7.63 7.63 0 0 1-.685.542l-.341-.45-.727.438.24.503c-.26.132-.527.247-.8.343l-.218-.527-.816.24.1.55c-.282.06-.57.101-.864.125l-.075-.57-.85.02-.043.566a7.173 7.173 0 0 1-.87-.1l.08-.583-.827-.196-.19.542a6.832 6.832 0 0 1-.882-.352 7.706 7.706 0 0 0 1.516-1.258 5.399 5.399 0 0 0 1.635.253c1.308 0 2.59-.496 3.566-1.345h1.737l-.478-1.665c.354-.727.54-1.522.54-2.352 0-1.433-.556-2.78-1.572-3.791a5.333 5.333 0 0 0-3.792-1.57c-.558 0-1.11.086-1.635.256a7.541 7.541 0 0 0-1.514-1.257c.282-.135.576-.253.876-.353l.21.55.818-.219-.093-.567c.287-.05.577-.085.871-.1l.06.576.85-.003.053-.56c.294.024.583.065.868.126l-.092.566.822.219.199-.525c.273.1.542.212.802.344l-.23.522.734.415.322-.448c.241.166.469.349.69.54l-.353.436.6.596.423-.349c.19.223.367.458.525.701l.008-.005Zm6.516.614 1.14 4.867h.358l1.019-4.867h2.242l1.031 4.867h.354l1.107-4.867h1.688l-1.585 6.24h-2.595l-.933-4.61h-.379l-.957 4.61h-2.558l-1.635-6.24h1.703Zm10.41 5.564c-.52-.535-.78-1.367-.78-2.498 0-.694.142-1.28.424-1.76.281-.48.657-.838 1.127-1.075.47-.238.987-.355 1.553-.355.727 0 1.323.117 1.79.353a2.25 2.25 0 0 1 1.04 1.084c.228.487.342 1.11.342 1.869 0 .693-.134 1.278-.4 1.756a2.571 2.571 0 0 1-1.1 1.07c-.467.236-1.003.356-1.609.356-1.07 0-1.866-.267-2.386-.8Zm1.328-1.071c.27.288.63.432 1.08.432.287 0 .534-.048.739-.146.204-.097.364-.273.484-.53.12-.256.18-.611.18-1.067 0-.657-.14-1.13-.414-1.418-.277-.288-.639-.433-1.088-.433-.283 0-.525.05-.728.146-.203.098-.363.274-.481.529s-.176.608-.176 1.061c0 .663.135 1.138.405 1.428l-.001-.002Zm5.551 1.747v-6.24h3.07c.876 0 1.56.155 2.052.468.49.311.736.778.736 1.4 0 .482-.107.874-.322 1.172-.216.3-.57.533-1.068.7l1.656 2.363v.137h-1.802l-1.377-2.105h-1.307v2.105h-1.64.002Zm2.722-3.278c.468 0 .823-.063 1.067-.189.242-.126.365-.335.365-.626 0-.228-.046-.4-.135-.522a.665.665 0 0 0-.38-.245 2.53 2.53 0 0 0-.625-.064h-1.373v1.647h1.082l-.001-.001Zm6.424 1.86h2.85v1.418h-4.489v-6.24h1.64v4.822h-.001Zm4.18-4.822h2.222c.954 0 1.716.111 2.286.335.57.223.982.564 1.237 1.025.255.46.382 1.064.382 1.81 0 .685-.154 1.257-.464 1.716-.31.46-.73.8-1.262 1.022-.533.222-1.137.333-1.815.333h-2.587v-6.24l.001-.001Zm2.583 4.872c.367 0 .68-.047.94-.143.261-.096.467-.269.62-.517.152-.25.23-.596.23-1.041 0-.445-.073-.81-.22-1.074a1.236 1.236 0 0 0-.65-.564c-.288-.112-.659-.169-1.11-.169h-.753v3.508h.945-.002Zm8.5-3.566c.29-.48.677-.838 1.158-1.075a3.51 3.51 0 0 1 1.576-.355c.899 0 1.613.147 2.142.444.53.298.805.755.83 1.373v.063l-1.765.45c.003-.03.005-.073.005-.125a.553.553 0 0 0-.324-.522c-.217-.111-.492-.168-.829-.168-.446 0-.81.124-1.094.374-.283.25-.424.684-.424 1.302 0 .458.063.822.187 1.093.124.27.3.462.523.574.225.111.5.168.824.168.23 0 .44-.032.629-.095.189-.062.34-.155.451-.278a.647.647 0 0 0 .168-.451.936.936 0 0 0-.012-.162l1.776.278a1.565 1.565 0 0 1-.316 1.2c-.221.292-.558.528-1.006.704-.45.178-1.001.266-1.655.266-1.088 0-1.906-.269-2.455-.807-.548-.537-.823-1.369-.823-2.492 0-.693.146-1.28.437-1.759h-.003Zm7.271 4.934v-6.24h1.64v2.438h2.613v-2.438h1.64v6.24h-1.64v-2.388H77.6v2.388h-1.64Zm9.124-6.24h2.911l1.939 6.24H88.12l-.295-1.036h-2.608l-.296 1.036h-1.777l1.939-6.24h.002Zm2.37 3.902-.823-2.9h-.22l-.824 2.9h1.867Zm3.782 2.338v-6.24h2.84l1.302 4.66h.288l1.37-4.66h2.84v6.24h-1.364v-4.906h-.3l-1.502 4.906h-2.322l-1.49-4.906h-.295v4.906h-1.369.002Zm10.47 0v-6.24h2.904c.571 0 1.066.085 1.486.253.418.17.744.429.976.78.231.35.348.792.348 1.325 0 .533-.113.984-.34 1.329-.226.344-.569.6-1.03.767-.46.166-1.045.25-1.756.25h-.948v1.534h-1.64v.002Zm2.654-2.85c.312 0 .566-.032.768-.097a.845.845 0 0 0 .457-.322c.104-.15.156-.355.156-.613s-.043-.475-.128-.626a.705.705 0 0 0-.382-.322c-.169-.065-.397-.096-.68-.096h-1.206v2.075h1.015Zm4.599 2.85v-6.24h1.64v6.24h-1.64Zm4.151-.676c-.521-.535-.78-1.367-.78-2.498 0-.694.141-1.28.423-1.76.281-.48.657-.838 1.127-1.075.47-.238.987-.355 1.553-.355.727 0 1.324.117 1.789.353.466.236.813.598 1.041 1.084.228.487.341 1.11.341 1.869 0 .693-.133 1.278-.399 1.756a2.562 2.562 0 0 1-1.1 1.07c-.467.236-1.003.356-1.609.356-1.07 0-1.866-.267-2.386-.8Zm1.327-1.071c.27.288.63.432 1.08.432.287 0 .534-.048.739-.146.204-.097.364-.273.484-.53.119-.256.179-.611.179-1.067 0-.657-.138-1.13-.413-1.418-.276-.288-.639-.433-1.088-.433-.283 0-.526.05-.728.146-.203.098-.364.274-.481.529-.118.255-.177.608-.177 1.061 0 .663.136 1.138.406 1.428l-.001-.002Zm5.887 1.747v-6.24h2.942l1.956 5.05h.303v-5.05h1.398v6.24h-2.949l-1.952-5.055h-.303v5.055h-1.395Zm13.386-.373c-.497.332-1.248.497-2.254.497-.607 0-1.126-.07-1.557-.214-.431-.143-.753-.34-.971-.588a1.261 1.261 0 0 1-.327-.849c0-.05.011-.127.033-.233l1.463-.257.167-.03a.428.428 0 0 0-.046.2c0 .207.103.364.308.471.205.107.562.16 1.07.16.305 0 .55-.02.735-.062.186-.043.323-.109.411-.202a.518.518 0 0 0 .13-.372c0-.167-.049-.294-.146-.38-.097-.089-.288-.16-.569-.215a15.499 15.499 0 0 0-1.344-.17c-.552-.05-.977-.136-1.275-.262-.299-.126-.508-.302-.631-.53-.123-.23-.182-.536-.182-.921 0-.428.107-.793.32-1.1.214-.304.524-.537.928-.696.406-.158.89-.239 1.456-.239.828 0 1.484.118 1.965.356.481.237.75.602.805 1.096a1.002 1.002 0 0 1 0 .237l-1.597.503a.73.73 0 0 0 .033-.192c0-.217-.115-.37-.343-.463-.229-.093-.545-.14-.951-.14-.406 0-.668.053-.849.162a.531.531 0 0 0-.271.487c0 .141.052.253.158.333.105.08.32.15.647.208.326.058.832.114 1.516.17 1.274.105 1.91.688 1.91 1.746 0 .66-.248 1.156-.745 1.488l.003.001Zm2.395.373v-6.24h1.639v2.438h2.613v-2.438h1.64v6.24h-1.64v-2.388h-2.613v2.388h-1.639Zm7.883 0v-6.24h1.639v6.24h-1.639Zm3.63 0v-6.24h2.904c.57 0 1.066.085 1.485.253.419.17.744.429.977.78.231.35.347.792.347 1.325 0 .533-.113.984-.339 1.329-.227.344-.569.6-1.03.767-.461.166-1.046.25-1.756.25h-.948v1.534h-1.64v.002Zm2.654-2.85c.311 0 .566-.032.767-.097a.848.848 0 0 0 .458-.322c.103-.15.155-.355.155-.613s-.042-.475-.127-.626a.705.705 0 0 0-.382-.322c-.17-.065-.398-.096-.681-.096h-1.206v2.075h1.016Zm-39.206-9.358c-.662 2.273-2.764.858-2.315-2.214.887-6.051 5.954-14.535 5.877-14.609-.257-.242-7.891 7.759-10.364 12.345-1.216 2.256-3.117 1.266-2.949-.833.22-2.767 1.017-6.519 2.407-10.735-2.083 2.55-5.422 8.093-6.385 10.07-1.042 2.141-2.586-.096-1.34-2.74 2.757-5.84 6.324-10.072 8.212-11.531 2.255-1.74 3.239-.811 3.134.48-.121 1.491-.911 1.946-2.544 9.511 4.155-5.771 7.609-8.612 10.667-10.475 3.058-1.865 5.772-.871 4.241 1.675-4.024 6.695-6.248 10.823-8.644 19.056h.003ZM65.413 10.8c.025-.648-.355-1.03-1.86-.994-1.506.038-3.526.403-5.308.777.994-1.583 1.645-2.885 2.845-4.657 1.918-.753 8.08-2.036 14.65-2.45 2.259-.086 2.617-2.024-.232-2.323-6.337-.665-14.17 1.022-19.165 2.512-2.777.829-4.404 4.32.267 3.105-2.712 5.014-6.21 11.927-6.851 15.384-.326 1.757 1.147 2.448 1.896 1.274.251-.395 3.05-5.707 4.37-8.124.71-1.295.752-1.287 2.066-1.693 2.376-.734 3.307-.953 5.627-1.59.816-.223 1.664-.375 1.697-1.221h-.002Zm8.759-3.968c.811-.07 1.237-.714 2.02-.786 1.94-.18 3.384 2.009 2.921 5.304-.703 5.016-6.103 11.457-10.994 11.411-3.29-.031-4.772-2.407-4.398-5.017.738-5.145 5.256-10.456 10.45-10.91v-.002ZM75.625 8.8c-5.64.832-10.289 10.191-8.41 11.039 2.028.913 9.218-4.6 8.41-11.039Zm61.377-7.773c-.577-.239-1.236-.05-1.849.975-9.867 16.508-13.93 19.167-14.776 18.258-.503-.54.461-3.005 2.599-7.42 1.857-3.832 4.56-7.607 3.19-8.61-1.369-1.003-3.13 1.26-4.501 3.147-2.747 3.778-7.611 13.793-3.179 15.656 3.649 1.535 8.44-3.323 11.537-7.851 4.459-6.52 8.015-13.592 6.979-14.155Zm-1.105 18.901c1.004-3.718 4.675-10.307 8.752-15.936 1.795-2.477-1.126-2.388-3.105.079-1.755 2.189-9.6 12.068-10.227 16.015-.39 2.446 1.415 3.875 4.284 3.08 2.866-.796 5.729-2.478 9.908-2.838 1.275-.11 2.234-1.557.733-1.92-1.793-.434-6.231-.176-10.344 1.52h-.001Zm-41.206 2.572c-3.18-.918-8.536-4.158-11.457-6.4-.827 1.832-1.762 3.743-2.49 5.405-1.024 2.332-2.87.24-1.826-2.567 1.733-4.65 4.577-10.048 5.283-11.34-.55.168-.82.337-1.393.506-1.852.545-1.902-1.085.222-2.508 3.124-2.093 6.307-2.968 10.115-2.98 4.028-.01 4.916 2.068 4.74 3.417-.396 3.03-6.608 6.746-10.67 8.67 1.388 1.296 6.039 4.588 9.645 6.232 1.697.773.302 2.278-2.17 1.564v.001Zm-10.12-9.346c4.368-2.561 9.249-5.267 9.437-6.888.167-1.426-2.92-.85-6.03.239-1.012 1.78-2.002 3.848-3.41 6.649h.002Zm75.72-9.886c-.958 2.092-4.915 8.357-6.3 19.03-.307 2.355-2.732 2.663-3.327.232-.217-.886-.217-2.073-.563-3.984-.295-1.633-.812-3.028-1.391-4.056-.972-1.725.992-1.904 1.822-.81.481.634 1.039 1.49 1.344 2.533 1.044-5.2 3.384-10.045 3.33-10.084-.306-.223-6.031 5.036-9.719 8.65-1.843 1.807-4.429 1.694-2.756-.687 2.726-3.88 10.18-10.567 14.598-12.53 1.703-.756 3.709.072 2.962 1.706Zm31.788 21.67c-4.032 5.246-13.225 11.516-21.894 11.516-7.613 0-12.289-5.437-12.289-11.995 0-16.09 29.47-25.718 36.809-24.326 1.487.281 2.479 1.36 2.316 2.883-.695 6.463-15.828 20.498-27.445 18.389-2.547-.463-1.861-2.9.541-2.903 10.491-.01 21.693-13.805 21.047-14.593-.55-.67-17.182 4.625-24.047 12.634-6.419 7.49-1.388 13.636 5.052 13.586 4.017-.032 10.856-1.404 18.25-7.067 2.544-1.948 2.748.459 1.662 1.874l-.002.001Z" fill="url(#b)"/><path d="M45.943 12.482a5.746 5.746 0 0 0-2.09-1.744 3.753 3.753 0 0 0 1.62-3.088c0-2.141-1.458-3.757-4.133-3.757h-1.057v8.589h5.66ZM39.747 3.893h-5.19v8.589h5.19v-8.59ZM39.747 13.02h-5.19v8.588h5.19V13.02ZM40.283 13.018v8.589h1.056c3.517 0 5.744-2.49 5.744-5.726a5.67 5.67 0 0 0-.783-2.863h-6.017ZM15.225 12.482l-3.037-8.59H9.862v8.59h5.363ZM9.325 12.482v-8.59H6.999l-3.037 8.59h5.363ZM9.325 13.018H3.772l-3.036 8.59h4.473l1.253-3.58h2.863v-5.01ZM9.862 13.018v5.01h2.863l1.252 3.58h4.474l-3.036-8.59H9.863ZM31.27 12.482a5.747 5.747 0 0 0-2.09-1.744A3.753 3.753 0 0 0 30.8 7.65c0-2.141-1.458-3.757-4.134-3.757H25.61v8.589h5.66ZM25.073 3.893h-5.19v8.589h5.19v-8.59ZM25.073 13.02h-5.19v8.588h5.19V13.02ZM25.61 13.018v8.589h1.056c3.517 0 5.743-2.49 5.743-5.726 0-1.047-.292-2.02-.783-2.863H25.61Z" fill="#FF000F"/></g><defs><linearGradient id="b" x1="2.931" y1="37.863" x2="195.172" y2="6.553" gradientUnits="userSpaceOnUse"><stop stop-color="#002D5F"/><stop offset="1" stop-color="#0045FF"/></linearGradient><clipPath id="a"><path fill="#fff" d="M0 0h197.04v40H0z"/></clipPath></defs></svg>