<svg id="Layer_1" data-name="Layer 1" xmlns="http://www.w3.org/2000/svg" viewBox="0 0 240 143.83"><defs><style>.cls-1{fill:#f9dd00;}.cls-2{fill:#2d9044;}.cls-3{fill:#fff;}</style></defs><path class="cls-1" d="M198.17,255.48c.18-2,.5-4,.5-6q0-30.19,0-60.38c0-2.48.1-5,.12-7.45,0-2.15,1-3.14,3.21-3.13,5.95.05,11.9.07,17.85,0,2.34,0,2.93,1.2,2.91,3.27-.06,6.82,0,13.63,0,20.45,0,23.7.05,47.39-.05,71.09a23.41,23.41,0,0,1-5.86,16.06c-6,6.78-17.53,8-24.24,4.44a20.08,20.08,0,0,1-10.25-12q-3.88-13.17-7.55-26.42c-3.62-13.19-7.13-26.4-10.69-39.61h-.82c-.09,1.17-.26,2.33-.26,3.5q0,35.06,0,70.12c0,4.72,0,4.75-4.65,4.77-5.3,0-10.6,0-15.9.05-2.26,0-3.48-.85-3.64-3.13-.11-1.61-.35-3.22-.35-4.84,0-27.05-.12-54.1.07-81.15,0-6.32.86-12.61,4-18.47,3.74-7.05,13.6-10.87,22.12-8.94,9.81,2.22,14.34,9.08,16.83,17.75,3.13,10.9,5.74,21.94,8.61,32.92,2.35,9,4.75,18.07,7.13,27.1Z" transform="translate(-138 -177.17)"/><path class="cls-2" d="M300.51,293.62c2.25-5.62,4.32-10.82,6.42-16,.36-.9.88-1.74,1.2-2.66,2.44-7,1.46-6.11,9.18-6.16,8.44,0,16.88,0,25.32,0,7.58,0,9.25-1.65,9.27-9.09,0-1.62,0-3.24,0-4.87-.1-4.48-1.64-6.06-6.1-6.09-6.71,0-13.42.07-20.13-.07-10.79-.23-19.54-6.83-22-16.85a45.51,45.51,0,0,1-.95-10.31c0-7.46.1-14.93.31-22.39.32-11.41,8.71-20.33,20.13-20.56,17.1-.35,34.2-.11,51.3-.18,2,0,2.95.73,2.93,2.84-.07,6.6-.09,13.2,0,19.8,0,2.38-1.2,2.52-3.07,2.52q-19-.1-38-.05c-7.09,0-8.31,1.28-8.33,8.31,0,10.41,1,11.45,11.54,11.46,4.87,0,9.74,0,14.61.06,13.89.3,21.82,7,22.93,20.86a183.4,183.4,0,0,1-.07,29.18c-1,12.75-9,20.17-22.45,20.65-17.18.61-34.41.21-51.61.22A13.72,13.72,0,0,1,300.51,293.62Z" transform="translate(-138 -177.17)"/><path class="cls-2" d="M304.2,269.15c-2.38,5.87-5.07,10.9-6.43,16.27-1.94,7.69-6.31,9.79-13.8,9s-15.4.07-23-.75c-15.6-1.68-22.08-9-22.71-24.67-.19-4.76-.09-9.53-.09-14.29,0-24,.05-48.06-.07-72.09,0-3.2.81-4.44,4.18-4.28,5.51.25,11,.06,16.56.07,4.33,0,4.35,0,4.35,4.3q0,37,0,74c0,2.17.12,4.33.3,6.48.34,4.4,1.37,5.46,5.86,5.53,7.57.11,15.15.06,22.72.07,2.71,0,5.42,0,8.12,0C301.26,268.82,302.3,269,304.2,269.15Z" transform="translate(-138 -177.17)"/><rect class="cls-2" y="123.83" width="240" height="20"/><path class="cls-3" d="M148,317.63A3.06,3.06,0,0,1,146,317a2.36,2.36,0,0,1-.79-1.91V304.37h2.91v9.35q0,1.14.9,1.14h5.31v2.77Z" transform="translate(-138 -177.17)"/><path class="cls-3" d="M158.37,304.37v13.26h-2.9V304.37Z" transform="translate(-138 -177.17)"/><path class="cls-3" d="M164.22,309.52h2.84a2.93,2.93,0,0,1,2.05.72,2.6,2.6,0,0,1,.79,2v2.84a2.38,2.38,0,0,1-.78,1.91,3.09,3.09,0,0,1-2.06.66h-6.48v-2.77h5.51q.9,0,.9-1.14v-.29c0-.75-.3-1.12-.9-1.12h-2.84a2.93,2.93,0,0,1-2.05-.72,2.6,2.6,0,0,1-.79-2v-2.67a2.37,2.37,0,0,1,.78-1.91,3.11,3.11,0,0,1,2.06-.66h6.48v2.77h-5.51q-.9,0-.9,1.14v.12C163.32,309.15,163.62,309.52,164.22,309.52Z" transform="translate(-138 -177.17)"/><path class="cls-3" d="M180.1,307.14h-3.18v10.49H174V307.14h-3.26v-2.77h9.35Z" transform="translate(-138 -177.17)"/><path class="cls-3" d="M181.44,317.63h-3L182.14,306a2.21,2.21,0,0,1,2.19-1.8,2.24,2.24,0,0,1,2.25,1.8l3.62,11.61h-3l-.76-2.28h-4.18Zm4.13-5.07-1.27-4-1.28,4Z" transform="translate(-138 -177.17)"/><path class="cls-3" d="M205.72,312.38h-6v5.25h-2.9V307.07a2.53,2.53,0,0,1,.79-2,2.91,2.91,0,0,1,2-.72h6.22v2.77h-5.26c-.6,0-.9.37-.9,1.12v1.35h6Z" transform="translate(-138 -177.17)"/><path class="cls-3" d="M215.05,317.63l-4.13-5.12a3.49,3.49,0,0,1-.26-.35v5.47h-2.9V304.37h7.48a2.93,2.93,0,0,1,2,.72,2.57,2.57,0,0,1,.79,2v2.72a3.34,3.34,0,0,1-.69,2.36,3.82,3.82,0,0,1-2.73.72h-.09l4,4.76Zm-4.39-10.49v3.35a1.55,1.55,0,0,1,1.13-.41h2.48c.6,0,.9-.37.9-1.12v-.7c0-.75-.3-1.12-.9-1.12Z" transform="translate(-138 -177.17)"/><path class="cls-3" d="M222.21,317.63h-3.05L222.9,306a2.27,2.27,0,0,1,4.44,0L231,317.63h-3l-.77-2.28H223Zm4.13-5.07-1.28-4-1.27,4Z" transform="translate(-138 -177.17)"/><path class="cls-3" d="M239.56,304.37h2.91v11.37c0,1.37-.57,2.06-1.72,2.06a1.85,1.85,0,0,1-.63-.1,2.58,2.58,0,0,1-.8-.59,6.74,6.74,0,0,1-1-1.35l-3.21-5.1v7h-2.91V306.09a2,2,0,0,1,.44-1.37,1.35,1.35,0,0,1,1.09-.5,2.15,2.15,0,0,1,1.79,1.24l4.09,6.68Z" transform="translate(-138 -177.17)"/><path class="cls-3" d="M253.81,307.14h-5.32c-.6,0-.9.37-.9,1.12v5.46q0,1.14.9,1.14h5.32v2.77h-6.29a3.09,3.09,0,0,1-2.06-.66,2.38,2.38,0,0,1-.78-1.91v-8a2.53,2.53,0,0,1,.79-2,2.93,2.93,0,0,1,2.05-.72h6.29Z" transform="translate(-138 -177.17)"/><path class="cls-3" d="M257.53,317.63h-3L258.23,306a2.21,2.21,0,0,1,2.19-1.8,2.24,2.24,0,0,1,2.25,1.8l3.62,11.61h-3.05l-.76-2.28H258.3Zm4.13-5.07-1.27-4-1.28,4Z" transform="translate(-138 -177.17)"/><path class="cls-3" d="M276,304.37v6.43l4.47-6.43h3.3L279.12,311l4.63,6.61h-3.3L276,311.25v6.38h-2.9V304.37Z" transform="translate(-138 -177.17)"/><path class="cls-3" d="M286.81,317.63h-3.05L287.5,306a2.27,2.27,0,0,1,4.44,0l3.62,11.61h-3l-.77-2.28h-4.18Zm4.13-5.07-1.28-4-1.27,4Z" transform="translate(-138 -177.17)"/><path class="cls-3" d="M304.16,304.37h2.91v11.37c0,1.37-.57,2.06-1.72,2.06a2,2,0,0,1-.64-.1,2.69,2.69,0,0,1-.79-.59,6.74,6.74,0,0,1-1.05-1.35l-3.21-5.1v7h-2.91V306.09a2.06,2.06,0,0,1,.43-1.37,1.38,1.38,0,0,1,1.1-.5,2.15,2.15,0,0,1,1.79,1.24l4.09,6.68Z" transform="translate(-138 -177.17)"/><path class="cls-3" d="M319.46,310.54v4.52a2.38,2.38,0,0,1-.78,1.91,3.09,3.09,0,0,1-2.06.66h-4.5a3.15,3.15,0,0,1-2.07-.65,2.4,2.4,0,0,1-.77-1.92v-8a2.53,2.53,0,0,1,.79-2,2.93,2.93,0,0,1,2.05-.72h6.59v2.77h-5.62c-.6,0-.9.37-.9,1.12v5.46c0,.76.29,1.14.86,1.14h2.59q.9,0,.9-1.14v-3.18Z" transform="translate(-138 -177.17)"/><path class="cls-3" d="M324.34,317.63a3.11,3.11,0,0,1-2.06-.66,2.38,2.38,0,0,1-.78-1.91V304.37h2.91v9.35q0,1.14.9,1.14h5.3v2.77Z" transform="translate(-138 -177.17)"/><path class="cls-3" d="M340.53,312.38h-6v1.34q0,1.14.9,1.14h5.26v2.77h-6.23a3.06,3.06,0,0,1-2.05-.66,2.36,2.36,0,0,1-.79-1.91v-8a2.57,2.57,0,0,1,.79-2,2.93,2.93,0,0,1,2.05-.72h6.23v2.77h-5.26c-.6,0-.9.37-.9,1.12v1.35h6Z" transform="translate(-138 -177.17)"/><path class="cls-3" d="M349.94,317.63l-4.13-5.12a2.3,2.3,0,0,1-.25-.35v5.47h-2.91V304.37h7.48a2.93,2.93,0,0,1,2.05.72,2.53,2.53,0,0,1,.79,2v2.72a3.34,3.34,0,0,1-.69,2.36,3.82,3.82,0,0,1-2.73.72h-.08l4,4.76Zm-4.38-10.49v3.35a1.51,1.51,0,0,1,1.12-.41h2.48c.6,0,.9-.37.9-1.12v-.7c0-.75-.3-1.12-.9-1.12Z" transform="translate(-138 -177.17)"/><path class="cls-3" d="M356.37,317.63h-2.65v-2.77h1.68q.9,0,.9-1.14v-9.35h2.91v10.69a2.38,2.38,0,0,1-.78,1.91A3.11,3.11,0,0,1,356.37,317.63Z" transform="translate(-138 -177.17)"/><path class="cls-3" d="M363.19,317.63h-3.05L363.88,306a2.27,2.27,0,0,1,4.44,0l3.62,11.61h-3l-.77-2.28H364Zm4.13-5.07-1.28-4-1.27,4Z" transform="translate(-138 -177.17)"/></svg>